<?xml version="1.0" encoding="UTF-8"?>
<svg id="Layer_1" xmlns="http://www.w3.org/2000/svg" version="1.1" viewBox="0 0 256 256">
  <!-- Generator: Adobe Illustrator 30.1.0, SVG Export Plug-In . SVG Version: 2.1.1 Build 136)  -->
  <path d="M173.78,120.26c24.29,5.66,41.35,12.52,51.16,20.58,14.1,11.45,21.14,26.3,21.14,44.55,0,19.26-7.74,35.18-23.22,47.76-19,15.23-46.63,22.84-82.88,22.84H9.91v-6.99c11.83,0,19.85-1.1,24.07-3.3s7.17-5.07,8.87-8.59,2.55-12.21,2.55-26.05V44.93c0-13.84-.85-22.56-2.55-26.15s-4.69-6.45-8.97-8.59-12.27-3.21-23.98-3.21V0h122.71c29.33,0,50.09,2.61,62.3,7.83,12.21,5.22,21.84,13.03,28.88,23.41s10.57,21.43,10.57,33.13c0,12.33-4.47,23.32-13.4,32.94-8.94,9.63-24.67,17.27-47.2,22.94ZM105.06,129.89v82.12l-.19,9.44c0,6.8,1.73,11.93,5.19,15.39s8.59,5.19,15.39,5.19c10.07,0,19.35-2.23,27.85-6.7,8.5-4.47,15.01-10.95,19.54-19.45s6.8-17.97,6.8-28.41c0-11.96-2.77-22.69-8.31-32.19-5.54-9.5-13.15-16.14-22.84-19.92-9.69-3.78-24.17-5.6-43.42-5.47ZM105.06,115.16c17.87,0,31.06-2.01,39.55-6.04,8.5-4.03,15.01-9.69,19.54-16.99s6.8-16.61,6.8-27.94-2.23-20.61-6.7-27.85c-4.47-7.24-10.86-12.74-19.16-16.52s-21.65-5.6-40.02-5.47v100.81Z"/>
</svg>