<?xml version="1.0" encoding="utf-8"?>
<!-- Generator: Adobe Illustrator 30.1.0, SVG Export Plug-In . SVG Version: 9.03 Build 0)  -->
<svg version="1.0" id="Layer_1" xmlns="http://www.w3.org/2000/svg" xmlns:xlink="http://www.w3.org/1999/xlink" x="0px" y="0px"
	 viewBox="0 0 256 256" style="enable-background:new 0 0 256 256;" xml:space="preserve">
<style type="text/css">
	.st0{fill:#00A651;}
</style>
<g transform="translate(0.000000,1280.000000) scale(0.100000,-0.100000)">
	<path class="st0" d="M1237.5,12796.61c-27.69-14.94-47.72-33.1-57.73-52.44c-12.08-23.14-15.91-57.42-8.84-82.9
		c7.07-26.95,22.68-48.04,47.72-64.45c8.54-5.86,17.08-12.89,18.56-15.53c1.18-2.64,2.06-41.89,1.47-87
		c-1.18-67.67-2.06-82.61-5.6-86.12c-2.95-2.93-16.2-5.57-39.17-7.91c-137.26-13.48-235.05-38.96-349.62-90.52
		c-42.41-19.33-111.04-56.24-129.6-70.31c-4.71-3.52-12.67-8.79-17.67-11.42c-4.71-2.64-16.49-10.55-25.63-17.28
		c-9.13-6.74-23.27-16.7-30.93-22.26c-15.32-10.84-67.74-56.25-96.9-84.07c-58.61-55.37-136.37-154.67-172.01-219.41
		c-5.6-9.67-11.49-19.63-13.55-21.97c-6.19-7.32-50.07-102.24-58.91-127.43c-4.42-12.89-8.84-24.61-10.01-26.36
		c-5.89-8.5-28.28-86.71-36.82-128.89c-16.79-84.66-18.56-97.84-22.39-166.98c-4.71-82.61,0.29-165.8,14.73-237.28
		c1.47-7.91,5.01-25.78,7.66-39.55c9.72-50.09,40.06-145.3,61.26-191.88c10.01-21.68,41.24-84.66,45.95-92.28
		c1.47-2.34,9.72-16.11,18.26-30.76c66.86-112.2,160.53-215.9,268.33-297.04c22.09-16.41,30.34-24.31,30.34-29
		c0-4.39-18.56-24.9-58.32-64.74c-66.57-66.79-70.4-72.65-70.69-108.68c-0.29-27.54,7.07-44.53,26.21-61.22
		c23.27-20.21,57.14-26.36,88.07-15.82c12.96,4.39,25.04,15.23,94.55,83.49c43.89,43.06,81.59,78.51,83.94,78.51
		c2.36,0,16.79-5.57,32.11-12.01c15.32-6.74,53.31-20.51,84.53-30.76c160.23-53.32,331.66-66.5,494.83-38.08
		c62.15,10.84,80.12,14.94,114.28,24.9c36.82,10.84,99.56,32.81,126.65,44.53c14.73,6.15,27.98,11.42,29.75,11.42
		c2.06,0,37.7-33.98,79.53-75.58c85.42-84.66,91.6-89.05,126.65-90.81c26.51-1.46,45.95,6.15,63.33,24.9
		c17.08,18.75,23.27,33.4,23.27,58.29c0,33.98-6.19,43.06-74.22,109.56c-32.11,31.34-58.32,58.59-58.32,60.05
		c0,4.98,3.83,8.2,33.87,30.76c90.42,66.79,170.83,150.86,232.98,243.14c9.43,13.77,20.62,30.17,24.74,36.62
		c9.72,14.06,55.96,96.96,55.96,99.89c0,1.17,7.07,17.28,15.91,36.03c39.76,86.12,70.4,201.84,81.29,307.88
		c7.36,73.24,7.95,91.98,5.6,143.54c-7.95,176.94-53.61,340.98-131.96,475.74c-8.25,14.35-15.02,26.66-15.02,27.54
		c0,3.22-56.85,84.95-75.99,109.27c-49.48,63.57-123.12,135.92-185.86,183.38c-40.94,31.05-131.07,88.76-138.14,88.76
		c-1.18,0-6.77,3.22-12.37,7.03c-27.1,18.16-147.86,66.79-201.76,80.85c-78.64,21.09-126.65,29.29-217.96,37.5
		c-20.91,1.76-23.86,2.93-27.1,9.37c-4.71,9.08-5.01,156.72-0.59,169.61c1.77,4.98,6.48,9.96,11.49,12.01
		c13.84,5.86,37.7,31.64,48.01,52.44c8.54,17.58,9.43,21.68,9.13,45.7c-0.29,43.94-16.49,72.94-53.9,97.55l-16.49,10.84l-39.76,0.88
		C1255.47,12800.41,1242.8,12799.54,1237.5,12796.61z M1362.09,12165.02c8.54-1.76,30.63-5.27,49.19-7.91
		c103.38-14.35,205.59-53.02,307.8-116.3c83.65-51.85,174.66-138.85,230.33-220.29c68.04-99.31,113.69-209.16,132.25-316.96
		c12.37-72.06,15.91-134.75,11.19-196.27c-7.36-96.08-19.44-152.92-51.25-236.7c-40.65-106.34-98.97-195.98-182.62-280.05
		c-82.47-82.9-167.3-139.44-272.45-182.21c-36.23-14.35-88.66-31.64-113.4-36.91c-82.77-17.58-115.76-21.09-191.45-21.09
		c-69.81-0.29-93.37,2.05-161.7,15.23c-206.47,39.84-395.57,166.1-516.92,345.08c-9.13,13.48-16.49,24.9-16.49,25.78
		s-2.36,4.98-5.6,9.08c-9.72,13.77-40.06,74.41-51.54,103.12c-6.19,15.23-13.84,34.27-17.08,41.89
		c-7.36,18.46-15.32,45.41-21.5,72.36c-2.65,12.01-5.89,27.24-7.36,33.69c-10.9,47.46-17.67,112.49-17.67,166.68
		c0.29,31.64,6.48,99.31,11.19,123.33c1.77,8.2,4.71,23.14,6.48,33.69c4.12,20.8,11.19,49.8,20.03,79.09
		c7.66,25.78,37.7,101.36,44.48,112.49c3.24,4.98,11.19,19.63,17.97,32.52c6.77,12.89,19.73,35.15,29.16,49.21
		c16.49,26.07,67.16,93.45,76.29,101.65c2.95,2.64,12.37,12.6,21.21,21.97c34.76,37.2,107.51,97.55,145.5,120.11
		c7.95,4.98,22.68,13.77,32.4,19.63c81,48.92,189.69,87.59,280.99,100.48c17.38,2.34,40.06,5.57,50.66,7.32s24.45,3.52,30.93,3.81
		C1258.12,12170.3,1347.37,12167.95,1362.09,12165.02z"/>
	<path class="st0" d="M1260.18,11943.85c-24.45-6.74-49.48-32.22-55.08-56.25c-1.77-6.44-2.95-132.12-2.95-287.38
		c0-300.85-0.59-290.89,16.49-313.16c9.13-11.72,30.93-23.44,51.25-27.24c10.01-1.76,82.77-2.64,194.4-2.34l178.2,0.59l16.79,8.2
		c18.56,9.08,31.52,23.14,40.65,44.23c15.61,36.33-3.53,81.73-41.83,98.72l-15.61,7.03l-135.2-0.59
		c-81.59-0.29-137.55,0.59-140.79,2.34c-5.01,2.64-5.3,15.53-5.89,237.87l-0.88,234.94l-6.48,12.01
		c-7.36,14.06-27.1,32.52-40.35,37.79C1298.18,11946.78,1275.5,11947.95,1260.18,11943.85z"/>
	<path class="st0" d="M533.55,12745.93c-81.88-8.5-131.07-21.09-193.51-48.92c-86.01-38.38-154.63-91.4-214.13-165.22
		c-22.97-28.71-55.67-79.68-64.5-100.48c-2.36-5.57-8.25-18.75-13.25-29.29c-18.26-38.08-26.21-67.38-43.59-159.65
		c-6.77-36.91-5.89-93.16,2.06-137.68c3.24-19.33,7.36-42.48,8.84-51.27c4.12-22.26,23.27-78.51,37.11-108.39
		c19.15-41.6,33.87-65.91,63.03-104c27.39-36.03,39.76-49.51,44.77-47.46c2.06,0.88,5.6,7.03,7.95,14.06
		c6.19,20.21,48.31,104.87,71.28,144.13c20.32,34.86,68.92,107.51,89.84,133.87c24.74,31.64,83.36,96.08,113.69,124.79
		c53.61,51.26,96.32,85.54,156.7,125.96c16.2,10.84,33.28,22.56,38.29,25.78c8.84,5.86,28.28,16.99,73.64,41.89
		c40.94,22.56,98.08,47.75,151.1,67.08c49.48,18.16,123.71,39.55,149.92,43.65c7.07,1.17,13.25,3.22,14.14,4.69
		c2.65,3.81-30.63,42.77-60.97,71.48c-65.09,61.81-131.07,100.48-223.26,131.24c-24.15,7.91-27.1,8.5-75.11,16.7
		C636.93,12744.17,555.64,12748.27,533.55,12745.93z"/>
	<path class="st0" d="M1941.46,12744.76c-96.61-8.2-184.97-38.08-265.09-90.23c-17.38-11.42-54.49-39.84-61.85-47.16
		c-2.65-2.64-12.37-12.01-22.09-20.8c-23.56-21.68-58.02-61.52-56.55-65.62c0.59-1.76,5.01-4.1,9.72-5.27
		c102.5-24.9,111.34-27.54,189.69-57.42c10.6-3.81,30.34-12.3,44.18-18.75c13.84-6.44,30.34-14.06,36.82-16.99
		c6.48-2.93,26.51-13.48,44.18-23.44c17.97-9.96,36.52-20.21,41.24-22.85c11.49-5.86,73.93-47.16,98.67-65.33
		c54.79-40.13,126.65-103.99,166.42-147.94c38-41.89,59.2-66.21,66.57-77.34c4.12-5.57,14.43-20.21,23.56-32.22
		c23.86-32.22,47.42-68.55,71.57-110.73c21.8-38.67,60.38-117.18,66.27-135.92c6.77-20.8,9.13-19.92,37.7,15.82
		c14.43,18.16,30.93,40.43,36.52,49.21c14.43,21.97,32.11,51.85,32.11,53.9c0,0.88,3.24,8.5,7.07,16.99
		c33.58,72.36,51.84,155.84,51.84,236.7c0,28.12-7.36,93.45-13.55,123.04c-32.4,148.81-129.6,284.15-261.26,362.37
		c-25.63,15.53-72.46,38.96-77.17,38.96c-0.88,0-7.07,2.64-14.14,5.57c-20.91,9.37-58.02,20.21-87.48,25.19
		c-15.32,2.64-34.46,6.15-42.41,7.62C2043.08,12746.22,1974.15,12747.68,1941.46,12744.76z"/>
</g>
</svg>
