<?xml version="1.0" encoding="UTF-8"?>
<svg id="Layer_1" xmlns="http://www.w3.org/2000/svg" version="1.1" viewBox="0 0 256 256">
  <!-- Generator: Adobe Illustrator 30.1.0, SVG Export Plug-In . SVG Version: 2.1.1 Build 136)  -->
  <defs>
    <style>
      .st0 {
        fill: #00a64f;
      }
    </style>
  </defs>
  <path class="st0" d="M182.14,139.12l-17.76-17.82c-3.1-3.11-7.17-4.59-11.49-4.57l-38.57.23c-11.19.07-19.62,8.66-18.18,20.36-4.6-4.4-8.5-8.67-12.16-14.12l5.7-3.33c1.86-1.09,2.51-3.26,1.6-5-.98-1.86-3.23-2.43-5.14-1.37l-5.81,3.24c-4.31-8.31-6.63-17.16-7.13-26.6l6.75-.11c2.07-.03,3.68-1.8,3.67-3.56-.01-2.38-1.84-3.72-4.21-3.74l-6.17-.05c.38-9.33,2.8-18.19,7.06-26.61l6.35,3.49c1.6.88,3.81-.2,4.56-1.53.83-1.47.52-3.82-1.07-4.77l-6.12-3.66c5.16-7.81,11.36-14.12,19.43-19.46l3.48,5.72c1.1,1.81,3.2,2.47,5.05,1.39s2.27-3.23,1.14-5.25l-3.12-5.6c8.58-4.47,17.83-6.65,26.8-7.19l-.19,6.78c-.05,1.96,1.6,3.52,3.35,3.73,1.36.16,3.8-1.08,3.87-2.86l.28-7.59c9.36.51,18.27,2.85,26.51,7.14l-3.38,6.07c-.98,1.76-.12,4.03,1.5,4.87s3.82.4,4.84-1.33l3.46-5.87c7.91,4.99,14.36,11.53,19.5,19.44l-5.84,3.53c-1.74,1.05-2.28,3.22-1.23,5.07.86,1.52,3.16,2.13,5.05,1.09l5.8-3.19c4.33,8.5,6.5,17.1,7.14,26.58l-6.52.06c-2.08.02-3.71,1.32-3.91,3.2-.22,1.94,1.13,4.04,3.44,4.06l7.08.08c-.88,9.62-2.89,18.37-7.32,26.71l-5.93-3.43c-1.67-.97-3.78-.33-4.88,1.31-.83,1.24-.73,3.75,1.02,4.82l6.11,3.73c-3.96,6.07-8.59,11.05-14.44,15.87ZM180.13,67.62c1.93-1.11,2.43-3.3,1.46-5.05-.71-1.28-2.94-2.54-4.63-1.56l-35.29,20.36-12.91-22.25c-1-1.73-3.34-2.02-4.87-1.2-1.36.73-2.51,3.03-1.52,4.75l14.92,25.83c.96,1.67,3.43,1.86,4.97.97l37.86-21.85Z"/>
  <path class="st0" d="M152.62,124.1c3.14.05,5.45,1.1,7.46,3.14l43.19,43.85-42.67,42.43-5.48-5.28c-2.78-2.71-6.2-4.38-10.23-4.78l-52.84-5.18c-2.12-.21-4.15-1.29-5.69-2.83L13.78,122.86c-4.5-4.51-3.02-10.9,1.06-14.97,4.1-4.09,10.45-5.56,14.95-1.07l41.73,41.65c3.23,3.22,7.58,4.68,12.1,4.59l58.66-1.12-.03-7.27-30.55.35c-5.38.06-8.74-5.8-8.47-10.62.32-5.62,4.33-9.9,9.98-9.95l39.4-.35Z"/>
  <path class="st0" d="M95.04,145.66l-12.02.04c-2.5,0-5.1-1.07-6.79-2.92-1.95-2.15-4.65-4.03-6.17-6.15-27.53-38.31-18.87-91.17,18.08-119.11,37.45-28.31,90.5-21.61,119.72,15.02,29.01,36.37,24.14,89.78-12.19,120.19l-8.4-8.39c33.85-27.55,36.98-77.72,7.34-109.11s-80.42-31.2-109.71,1.21c-28.95,32.03-24.84,82.42,10.15,109.2Z"/>
  <path class="st0" d="M180.26,254.33c-2.38,2.38-5.35,2.05-7.34.06l-17.91-17.92c-1.97-1.97-1.99-4.94.05-6.98l63.35-63.35c2.07-2.07,5-2.19,7.05-.14l17.93,17.92c2.03,2.03,2.21,5.08.03,7.26l-63.15,63.15Z"/>
</svg>