<?xml version="1.0" encoding="UTF-8"?>
<svg id="Layer_1" xmlns="http://www.w3.org/2000/svg" version="1.1" viewBox="0 0 256 256">
  <!-- Generator: Adobe Illustrator 30.1.0, SVG Export Plug-In . SVG Version: 2.1.1 Build 136)  -->
  <defs>
    <style>
      .st0 {
        fill: #07b8fe;
      }
    </style>
  </defs>
  <path class="st0" d="M120.4,177.51c4.9,2.44,9.97,2.41,14.9-.39l53.13-53.33c4.92-4.94,3.91-12.53-.42-17.01-4.64-4.79-11.66-5.46-17.08-1.12l-30.42,30.16-.12-123.25c0-7.42-5.59-12.42-12.79-12.27-6.64-.14-12.67,4.49-12.68,11.67l-.17,123.87-30.39-30.19c-5.44-4.32-12.45-3.68-17.12,1.15-4.12,4.25-5.46,11.86-.66,16.68l53.83,54.04Z"/>
  <path class="st0" d="M242.95,153.98c-6.84,0-12.69,4.51-12.72,11.68l-.26,53.72c-.03,6.08-5.07,11.38-11.42,11.39l-137.81.24-44.13-.27c-6.21-.04-11.32-5.27-11.35-11.37l-.25-53.71c-.03-7.17-5.87-11.69-12.71-11.69-6.65,0-12.69,4.54-12.68,11.68l.03,53.94c.01,20.31,16.5,36.72,36.72,36.78l44.38-.05h138.04c20.35,0,36.78-16.64,36.8-36.68l.04-53.99c0-7.15-6.02-11.68-12.67-11.67Z"/>
</svg>