<?xml version="1.0" encoding="UTF-8"?>
<svg id="Layer_1" xmlns="http://www.w3.org/2000/svg" version="1.1" viewBox="0 0 256 256">
  <!-- Generator: Adobe Illustrator 30.1.0, SVG Export Plug-In . SVG Version: 2.1.1 Build 136)  -->
  <defs>
    <style>
      .st0 {
        fill: #231f20;
      }
    </style>
  </defs>
  <path class="st0" d="M150.09,249.01l-2.08,6.99H42.67l2.64-6.99c10.57-.25,17.56-1.13,20.96-2.64,5.54-2.14,9.63-5.1,12.27-8.87,4.15-5.92,8.43-16.49,12.84-31.72l44.55-154.43c3.78-12.84,5.66-22.53,5.66-29.07,0-3.27-.82-6.04-2.45-8.31s-4.12-4-7.46-5.19-9.85-1.79-19.54-1.79l2.27-6.99h98.93l-2.08,6.99c-8.06-.13-14.03.76-17.94,2.64-5.66,2.52-9.97,6.1-12.93,10.76-2.96,4.66-6.76,14.98-11.42,30.96l-44.37,154.43c-4.03,14.22-6.04,23.28-6.04,27.19,0,3.15.79,5.82,2.36,8.02s4.09,3.9,7.55,5.1,10.67,2.17,21.62,2.93Z"/>
</svg>