<?xml version="1.0" encoding="UTF-8"?>
<svg id="Layer_1" xmlns="http://www.w3.org/2000/svg" version="1.1" xmlns:serif="http://www.serif.com/" viewBox="0 0 256 256">
  <!-- Generator: Adobe Illustrator 30.1.0, SVG Export Plug-In . SVG Version: 2.1.1 Build 136)  -->
  <defs>
    <style>
      .st0 {
        fill-rule: evenodd;
      }

      .st0, .st1 {
        fill: #207346;
      }
    </style>
  </defs>
  <path class="st0" d="M77.22,32.03l155.42-.03c7.57,0,13.71-6.14,13.71-13.72s-6.14-13.71-13.72-13.71l-155.42.03c-7.57,0-13.71,6.14-13.71,13.72s6.14,13.71,13.72,13.71Z"/>
  <path class="st0" d="M232.97,223.76h-.02l-155.79.18c-7.57,0-13.71,6.16-13.7,13.73,0,7.57,6.15,13.7,13.71,13.7h.02l155.79-.18c7.57,0,13.71-6.16,13.7-13.73,0-7.57-6.15-13.7-13.71-13.7h0Z"/>
  <path class="st0" d="M77.2,141.7l155.44.03h0c7.57,0,13.71-6.14,13.71-13.71s-6.14-13.72-13.71-13.72l-155.44-.03h0c-7.57,0-13.71,6.14-13.71,13.71s6.14,13.72,13.71,13.72h0Z"/>
  <path class="st0" d="M77.12,196.58h155.5c7.57,0,13.71-6.14,13.71-13.71s-6.14-13.71-13.71-13.71H77.12c-7.57,0-13.71,6.14-13.71,13.71s6.14,13.71,13.71,13.71Z"/>
  <path class="st0" d="M232.63,59.44H77.27c-7.57,0-13.71,6.14-13.71,13.71s6.14,13.71,13.71,13.71h155.36c7.57,0,13.71-6.14,13.71-13.71s-6.14-13.71-13.71-13.71Z"/>
  <circle class="st1" cx="27.6" cy="18.29" r="18.29"/>
  <circle class="st1" cx="27.6" cy="73.14" r="18.29"/>
  <circle class="st1" cx="27.6" cy="128" r="18.29"/>
  <circle class="st1" cx="27.6" cy="182.86" r="18.29"/>
  <circle class="st1" cx="27.6" cy="237.71" r="18.29"/>
</svg>