<?xml version="1.0" encoding="UTF-8"?>
<svg id="Layer_1" xmlns="http://www.w3.org/2000/svg" version="1.1" viewBox="0 0 800 800">
  <!-- Generator: Adobe Illustrator 30.1.0, SVG Export Plug-In . SVG Version: 2.1.1 Build 136)  -->
  <defs>
    <style>
      .st0 {
        fill: #207346;
      }
    </style>
  </defs>
  <path class="st0" d="M638.2,161.8l-49.63,49.63c-104.14-104.14-272.99-104.13-377.12,0-104.14,104.14-104.13,272.99,0,377.12,50.01,50,117.83,78.1,188.55,78.1,106.94-.8,203.32-64.68,245.7-162.87,7.29-16.91-.51-36.52-17.41-43.81s-36.52.51-43.81,17.41c-.06.14-.12.28-.18.42-31.79,73.65-104.08,121.57-184.3,122.17-110.46-.01-199.99-89.57-199.98-200.02.01-110.46,89.57-199.99,200.02-199.98,53.03,0,103.88,21.07,141.39,58.57l-46.33,46.33c-6.52,6.5-6.53,17.05-.03,23.57,3.13,3.14,7.39,4.9,11.83,4.9h143.1c9.2,0,16.67-7.46,16.67-16.67,0-.01,0-.02,0-.03v-143.1c0-9.2-7.47-16.67-16.67-16.66-4.43,0-8.67,1.76-11.8,4.9h0Z"/>
</svg>