<?xml version="1.0" encoding="UTF-8"?>
<svg id="Layer_1" xmlns="http://www.w3.org/2000/svg" version="1.1" viewBox="0 0 725.67 725.67">
  <!-- Generator: Adobe Illustrator 30.1.0, SVG Export Plug-In . SVG Version: 2.1.1 Build 136)  -->
  <defs>
    <style>
      .st0 {
        fill: #fddf76;
      }

      .st1 {
        fill: #010101;
      }

      .st2 {
        fill: #fcfcfc;
      }

      .st3 {
        fill: #fb636e;
      }

      .st4 {
        fill: #05e19b;
      }

      .st5 {
        fill: #845050;
      }
    </style>
  </defs>
  <g>
    <path class="st5" d="M519.6,603.11l61.37.08c10.67.01,17.95-8.85,17.67-19.14-.14-5.3-.18-10.08.12-15.27,8.19-1.83,26.78,3.63,26.83-11.01.02-5.78-4.01-10.36-10.42-10.71-5.73-.32-11.04.55-16.79-.49-2.08-7.82-8.13-14.2-16.44-14.25l-58.97-.3c-9.88-.05-17.92,4.67-20.36,14.99l-105.87-.06.03-75.37,307.33-.03.28,75.33-38.29.2c-6.45-.36-11.14,3.67-11.79,9.3-.68,5.98,3.45,11.64,10.36,11.79,6.53.88,12.73-1.04,18.9.98l-.36,115.32h-265.29s-.39-115.85-.39-115.85l84.33-.39c1.47,6.43.11,11.89.74,18.11.54,8.69,7.16,16.75,17,16.77Z"/>
    <path class="st5" d="M593.19,416.45l-84.39-.12c-9.97-.01-17.38,7.62-17.66,17.32-.16,5.7.26,10.71-.3,16.13-4.64.83-8.99.83-13.72,0-.28-6.12-.48-11.84-.06-18.08,1.12-16.72,14.71-29.56,31.72-29.56h83.67c15.99,0,29.2,11.53,31.33,27.3.92,6.77.22,13.02.29,20.19-4.59,1.21-9.03.85-13.76.19-.63-5.53-.11-10.37-.33-16.27-.33-8.71-6.71-17.1-16.79-17.11Z"/>
    <rect class="st0" x="523.74" y="553.41" width="53.59" height="28.9"/>
  </g>
  <g>
    <path class="st1" d="M725.67,462.09v94.96c-6.87,7.34-7.77,12.13-19.68,11.43l-.78,113.82c-.08,12.14-8.72,20.12-19.76,23.55h-269.63c-18.9-6.25-21.1-19.53-20.48-36.37-142.94,29.11-285.51-36.75-355.92-164.56C18.02,466.06,5.69,424.1,1.17,379.99c-.25-2.45,1.29-5.23-1.17-5.78v-31.18c2.14-.61,3.23-3.25,5.22-4.5,4.71-2.95,9.45-1.07,12.63,1.35,4.61,3.51,3.08,7.76,3.49,13.15l1.8,23.91c5.6,74.24,40.27,142.14,94.12,193.26,50.15,47.61,114.23,76.66,183.28,82.76,10.38.92,19.79.48,30,.65,22.1.36,43.46-1.94,64.87-6.94l-.18-36.78c-77.03,19-151.63,5.72-217.11-36.65-5.98-3.87-10.64-10.67-6.28-17.54,2.41-3.79,11.27-5.26,14.89-2.8,39.07,26.49,83.82,41.88,130.54,43.41l.05-42.17c-127.34-6.82-218.62-126.21-190.9-250.81-14.39-2.47-26.93-8.21-40.05-14.96-20.81,85.23,4.1,173.49,65.03,234.87,4.32,4.35,2.61,11.46-.67,15.26-1.56,1.8-5.99,2.9-8.13,2.87-2.66-.04-5.42-1.97-7.92-4.51-43.09-43.74-70.1-101.27-75.91-162.94-1.65-17.51-.81-34.41-.02-51.7.74-16.17,5.22-31.29,8.26-47.08l-17.64-18.41c-23.13-24.13-31.61-59.51-28.94-92.84,5.2-64.78,54.27-115.49,118.5-123.05,44.15-5.2,87.93,13.08,116.13,46.73,28.81-9.3,68-11.51,97.51-8.92,130.36,11.41,234.51,117,245.02,247.66,1.15,14.35.4,27.78.36,42.17-.01,4.31-2.65,8.13-1.05,12.65,12.67-.05,22.93,6.29,33.39,14.36,3.87-16.97,4.23-56.58,2.63-74.79-13.12-149.62-141.89-272.34-274.64-277.65l-20.86-.83-13.81-1.65c-5.35-.64-6.54-7.24-6.27-11.36.21-3.29,3.62-9.3,8.67-9.36,121.5-1.56,232.62,65.39,290.54,171.52,23.22,42.54,36.11,88.08,39.13,136.38,2.22,35.51-1.23,65.8-9.11,100.41-1.56,6.84.6,14.14-.3,21.09l62,.41c8.55.06,13.71,6.08,17.4,12.44ZM230.92,267.99c2.21,6.02,2.17,12.03-3.82,15.99-23.64,15.65-50.92,23.28-79.6,22.15-14.76,64.17,5.34,129.82,51.5,174.63,46.31,44.96,112.78,63.02,176.36,46.16l.08-57.76c.01-10.87,7.67-18.84,18.6-18.87l61.34-.18c.9-19.27,1.3-15.08-6.58-20.07-5.2-3.3-7.1-9.09-4.31-14.58,2.46-4.84,8.76-7.21,15.71-3.71,9.68-19.1,27.88-31.39,50.01-30.89,11.23-61.55-9.64-123.78-53.86-166.34-44.9-43.21-108.3-61.25-170.12-47.04.87,28.23-6.18,55.34-21.71,78.42-3.5,5.21-10.22,3.84-14.94,2.23-3.99-5.22-4.61-10.78-1.01-16.63,29.96-48.67,17.76-111.26-26.14-145.74-45.08-35.41-109.24-31.01-148.97,9.82-39.49,40.59-42.39,104.5-6.39,148.45,35.66,43.53,99.26,54.42,147.34,22.83,5.9-3.88,11.3-2.95,16.52,1.13ZM317.34,141.42l-.18-42.01c-16.73.94-32.86,2.47-48.71,7.4,7.5,13.48,11.98,25.29,15.06,39.35,11.53-2.43,22.06-3.58,33.84-4.73ZM470.66,198.66l30.58-29c-44.1-42.89-102.1-68-162.63-70.1l.06,42.14c49.93,2.64,95.47,22.61,131.99,56.96ZM534.31,337.36l42.18-.15c-2.49-56.41-23.55-109.24-60.48-151.97l-30.71,29.03c29.68,35.25,46.24,77.15,49.01,123.09ZM574.38,380.63c1.04-7.73,2.33-14.74,1.6-22.05l-41.55.06-2.29,22.02,42.24-.03ZM593.19,416.45c10.09.01,16.47,8.4,16.79,17.11.22,5.9-.3,10.74.33,16.27,4.74.66,9.17,1.02,13.76-.19-.07-7.17.63-13.42-.29-20.19-2.13-15.77-15.34-27.31-31.33-27.31h-83.67c-17.01,0-30.6,12.85-31.72,29.57-.42,6.25-.22,11.96.06,18.08,4.73.82,9.08.82,13.72,0,.56-5.42.14-10.43.3-16.13.28-9.71,7.68-17.34,17.66-17.32l84.39.12ZM588.19,437.99h-75.12v11.34h75.12v-11.34ZM519.6,603.11c-9.84-.01-16.46-8.08-17-16.77-.63-6.22.73-11.68-.74-18.11l-84.33.39.39,115.86h265.29s.36-115.34.36-115.34c-6.18-2.02-12.38-.1-18.9-.98-6.91-.15-11.05-5.81-10.36-11.79.64-5.64,5.34-9.66,11.79-9.3l38.29-.2-.28-75.33-307.33.03-.03,75.37,105.87.06c2.43-10.32,10.48-15.04,20.36-14.99l58.97.3c8.31.04,14.36,6.43,16.44,14.25,5.75,1.04,11.06.18,16.79.49,6.41.35,10.44,4.93,10.42,10.71-.05,14.64-18.64,9.18-26.83,11.01-.3,5.19-.26,9.97-.12,15.27.28,10.29-7,19.15-17.67,19.14l-61.37-.08ZM396.39,586.85c-.37-7.8.75-12.78-.63-18.56-12.22.68-20.28-7.69-20.61-19.28-12.19,2.83-23.63,4.19-36.44,5.27l-.1,41.95c19.53-.39,38.8-3.68,57.78-9.38ZM577.33,553.41h-53.59v28.9h53.59v-28.9Z"/>
    <path class="st3" d="M171.83,555.7l-21.11-17.21c3.28-3.79,4.99-10.9.67-15.26-60.93-61.39-85.84-149.65-65.03-234.87,13.12,6.75,25.66,12.49,40.05,14.96-27.72,124.61,63.56,243.99,190.9,250.81l-.05,42.17c-46.72-1.53-91.47-16.91-130.54-43.41-3.62-2.46-12.49-.99-14.89,2.8Z"/>
    <path class="st0" d="M470.66,198.66c-36.52-34.35-82.06-54.32-131.99-56.96l-.06-42.14c60.53,2.09,118.53,27.21,162.63,70.1l-30.58,29Z"/>
    <path class="st4" d="M534.31,337.36c-2.77-45.94-19.34-87.84-49.01-123.09l30.71-29.03c36.93,42.73,57.98,95.56,60.48,151.97l-42.18.15Z"/>
    <path class="st3" d="M396.39,586.85c-18.98,5.69-38.25,8.99-57.78,9.38l.1-41.95c12.81-1.08,24.25-2.43,36.44-5.27.32,11.6,8.38,19.96,20.61,19.28,1.38,5.78.26,10.76.63,18.56Z"/>
    <path class="st3" d="M317.34,141.42c-11.78,1.15-22.31,2.3-33.84,4.73-3.07-14.06-7.56-25.87-15.06-39.35,15.86-4.93,31.98-6.46,48.71-7.4l.18,42.01Z"/>
    <path class="st3" d="M574.38,380.63l-42.24.03,2.29-22.02,41.55-.06c.73,7.3-.56,14.32-1.6,22.05Z"/>
    <g>
      <path class="st2" d="M230.92,267.99c6.77-6.07,13.94-12.06,18.65-19.86,4.71,1.62,11.43,2.98,14.94-2.23,15.53-23.09,22.58-50.19,21.71-78.42,61.82-14.21,125.23,3.83,170.12,47.04,44.22,42.56,65.08,104.79,53.86,166.34-22.13-.51-40.33,11.79-50.01,30.89-6.95-3.49-13.26-1.13-15.71,3.71-2.79,5.49-.89,11.29,4.31,14.58,7.88,4.99,7.48.8,6.58,20.07l-61.34.18c-10.93.03-18.58,8-18.6,18.87l-.08,57.76c-63.58,16.86-130.05-1.2-176.36-46.16-46.15-44.81-66.26-110.45-51.5-174.63,28.68,1.13,55.96-6.51,79.6-22.15,5.99-3.96,6.04-9.97,3.82-15.99ZM435.9,358.42c6.94-.76,10.22-6.31,9.6-11.81-.54-4.83-4.41-9.26-10.41-9.27l-96.5-.18v-140.03c.01-7.05-4.46-11.64-10.49-11.74-6.36-.11-10.79,4.72-10.81,11.59l-.11,54.99c-51.16,6.19-87.76,49.98-85.67,100.19,2.07,49.88,42.72,90.37,92.74,92.2,49.99,1.83,93.55-34.91,99.61-85.58,4.16-.76,7.59.12,12.05-.37ZM413.23,211.18c-2.3-4.03-6.18-5.9-11.21-5.31-6.28.74-15.03,13.87-10.7,21.43,2.19,3.83,6.27,6.01,11.65,5.13,5.49-.9,14.66-13.55,10.26-21.25ZM470.15,272.66c.2-4.84-2.43-8.62-5.93-10.3-7.31-3.51-20.83,4.52-21.1,12.25-.17,4.73,2.63,8.45,5.71,10.05,7.49,3.89,21.01-4.33,21.33-12ZM186.03,338.04c-4.79-1.3-9.9-1.26-14,.15-5.97,2.05-7.71,8.59-5.92,13.65,1.96,5.53,7.8,6.93,13.88,6.88,6.23-.06,11.59-2.32,12.88-8.07,1.06-4.75-.61-10.93-6.84-12.62ZM483.55,338.13c-4.66-1.48-9.84-1.27-13.96-.01-6.18,1.88-7.97,8.51-6.44,13.18,1.91,5.84,7.1,7.34,13.06,7.41s11.67-1.38,13.59-6.94c1.69-4.87.25-11.57-6.25-13.63ZM205.22,431.24c6.83-3.56,9.62-10.37,5.75-16.56-3.56-5.7-10.97-5.75-16.82-1.99-4.4,2.83-8.38,5.54-8.45,10.51s2.33,8.51,6.3,10.39c4.42,2.09,8.47.13,13.22-2.35ZM264.61,468.59c-2.29-4.01-6.43-5.94-11.55-5.21-6.06.87-14.21,13.38-10.69,20.82,1.68,3.56,5.59,6.11,10.41,5.89,7.61-.35,16.02-14.17,11.83-21.51ZM338.8,496.79c.38-8.24-3.76-14.13-10.72-14.19-7.19-.06-11.36,6.06-10.91,13.51.3,4.89.43,9.5,4.27,12.23,3.4,2.42,8.09,2.96,12.25.51,3.56-2.1,4.84-6.26,5.11-12.06Z"/>
      <path class="st1" d="M435.9,358.42c-4.46.49-7.89-.38-12.05.37-6.06,50.66-49.61,87.41-99.61,85.58-50.02-1.83-90.67-42.32-92.74-92.2-2.09-50.21,34.51-94,85.67-100.19l.11-54.99c.01-6.88,4.45-11.7,10.81-11.59s10.51,4.69,10.51,11.74v140.03s96.48.18,96.48.18c6,.01,9.87,4.44,10.41,9.27.62,5.5-2.66,11.04-9.6,11.81ZM317.34,346.63l-.13-73.09c-38.92,5.67-66.5,39.98-64.39,78.44,2.1,38.28,33.06,69.51,71.86,71.16,37.72,1.61,72.05-25.59,77.65-64.49l-74.86-.16c-6.05-.57-10.31-4.95-10.13-11.87Z"/>
      <path class="st1" d="M470.15,272.66c-.32,7.67-13.84,15.89-21.33,12-3.08-1.6-5.88-5.31-5.71-10.05.27-7.73,13.8-15.75,21.1-12.25,3.5,1.68,6.13,5.45,5.93,10.3Z"/>
      <path class="st1" d="M264.61,468.59c4.19,7.34-4.23,21.16-11.83,21.51-4.82.22-8.72-2.33-10.41-5.89-3.52-7.45,4.63-19.95,10.69-20.82,5.12-.74,9.26,1.19,11.55,5.21Z"/>
      <path class="st1" d="M205.22,431.24c-4.75,2.48-8.8,4.45-13.22,2.35-3.96-1.88-6.37-5.58-6.3-10.39s4.05-7.68,8.45-10.51c5.85-3.76,13.26-3.7,16.82,1.99,3.87,6.18,1.08,12.99-5.75,16.56Z"/>
      <path class="st1" d="M413.23,211.18c4.4,7.7-4.77,20.36-10.26,21.25-5.38.88-9.45-1.3-11.65-5.13-4.33-7.56,4.41-20.69,10.7-21.43,5.03-.59,8.9,1.28,11.21,5.31Z"/>
      <path class="st1" d="M483.55,338.13c6.5,2.06,7.93,8.77,6.25,13.63-1.92,5.56-7.5,7.01-13.59,6.94s-11.14-1.57-13.06-7.41c-1.53-4.66.26-11.29,6.44-13.18,4.12-1.26,9.3-1.47,13.96.01Z"/>
      <path class="st1" d="M338.8,496.79c-.27,5.81-1.55,9.97-5.11,12.06-4.17,2.46-8.85,1.92-12.25-.51-3.84-2.74-3.98-7.35-4.27-12.23-.45-7.45,3.72-13.57,10.91-13.51,6.96.06,11.11,5.95,10.72,14.19Z"/>
      <path class="st1" d="M186.03,338.04c6.22,1.69,7.9,7.87,6.84,12.62-1.29,5.74-6.65,8.01-12.88,8.07-6.08.05-11.92-1.35-13.88-6.88-1.79-5.06-.05-11.61,5.92-13.65,4.1-1.41,9.21-1.45,14-.15Z"/>
      <path class="st0" d="M317.34,346.63c-.18,6.93,4.07,11.3,10.13,11.87l74.86.16c-5.59,38.9-39.92,66.11-77.65,64.49-38.8-1.66-69.76-32.89-71.86-71.16-2.11-38.46,25.47-72.77,64.39-78.44l.13,73.09Z"/>
    </g>
    <g>
      <path class="st4" d="M249.56,248.13c-4.71,7.8-11.88,13.79-18.65,19.86-5.22-4.08-10.62-5.01-16.52-1.13-48.08,31.59-111.69,20.7-147.34-22.83-35.99-43.95-33.1-107.86,6.39-148.45,39.73-40.83,103.89-45.23,148.97-9.82,43.89,34.48,56.1,97.07,26.14,145.74-3.6,5.85-2.98,11.41,1.01,16.63ZM136.49,217.03c4.46,4.46,10.92,3.49,14.89-.48l66.5-66.56c4.59-4.59,3.91-11.58-.32-15.32-3.99-3.53-10.35-3.87-14.62.38l-59.36,59.01-36.93-36.93c-4.65-4.65-11.15-5.5-15.69-1.39-4,3.62-5.06,10.69-.74,15.01l46.27,46.28Z"/>
      <path class="st1" d="M136.49,217.03l-46.27-46.28c-4.32-4.32-3.26-11.39.74-15.01,4.54-4.11,11.04-3.26,15.69,1.39l36.93,36.93,59.36-59.01c4.27-4.24,10.64-3.91,14.62-.38,4.22,3.74,4.91,10.72.32,15.32l-66.5,66.56c-3.97,3.97-10.43,4.94-14.89.48Z"/>
    </g>
  </g>
</svg>