<?xml version="1.0" encoding="UTF-8"?>
<svg id="Layer_1" xmlns="http://www.w3.org/2000/svg" version="1.1" viewBox="0 0 256 256">
  <!-- Generator: Adobe Illustrator 29.6.1, SVG Export Plug-In . SVG Version: 2.1.1 Build 9)  -->
  <defs>
    <style>
      .st0 {
        fill: #89d4ec;
      }

      .st1 {
        fill: #f2f2f2;
      }

      .st2 {
        fill: #231f20;
      }
    </style>
  </defs>
  <path class="st2" d="M155.24,219.5c-5.35,5.65,5.71,33.25-10.38,35.81-6.05.96-26.44.84-32.75.08-17.19-2.05-6.13-27.7-11-35.45-.52-.82-16.51-7.8-17.71-7.91-7.26-.65-18.15,25.7-32.37,18.64-2.23-1.1-21.48-20.33-23.53-23.12-4.03-5.46-3.57-10.37.09-15.89,2.72-4.1,15.26-13.76,16.14-16.78.61-2.1-4.83-16.85-6.27-18.8-5.98-8.09-33.55,5.28-36.67-12.04-1.06-5.87-.95-24.37-.25-30.57,2.35-20.8,31.55-4.73,37.27-14.63.5-.87,5.74-13.57,5.89-14.33,1.23-6.17-9.18-12.55-13.03-17.26-4.47-5.47-8.7-10.8-4.17-18.03,1.55-2.48,20.01-21.07,22.65-22.94,15.71-11.14,26.46,18.98,34.96,17.14,1.01-.22,15.48-6.38,16.17-6.93,5.8-4.66-4.65-32.66,9.96-35.98,3.32-.75,35.15-.65,37.31.33,11.64,5.3,3.33,25.43,6.91,33.44.84,1.89,16.32,9.19,18.14,9.35,7.39.66,19.17-27.38,33.68-17.84,2.59,1.7,20.86,20.13,22.74,22.86,2.7,3.92,3.07,8.35,1.14,12.84-2.35,5.47-16.93,15.68-17.91,19.29-.84,3.09,6.01,18.69,8.96,20.37,8.43,4.8,30.76-5.17,34.04,9.38,1.07,4.75.89,27.32.25,32.75-2.02,17.09-25.56,6.28-34.28,11.26-3.5,2-10.35,17.91-8.12,21.72,5.17,8.82,25.65,16.68,15.93,30.77-2.11,3.06-19.12,20.19-22.17,22.36-15.04,10.71-25.36-16.62-33.53-17.36-.97-.09-17.4,6.78-18.07,7.49Z"/>
  <path class="st1" d="M114.5,5.84c5.22-.93,20.77-.91,26.22-.28,3.89.45,6.36,1.7,6.9,5.82,1.32,10.05-4.23,24.96,6.24,30.93,6.04,3.45,18.53,8.76,25.17,6.05,5.1-2.08,13.71-15.65,18.27-17.78,2.38-1.11,3.74-.78,5.86.47,1.8,1.06,18.23,17.82,20.05,20.22,2.79,3.67,3.35,4,.51,7.99-5.89,8.27-19.97,14.1-17.51,26.1.69,3.39,7.64,19,10.16,20.62,7.42,4.79,30.94-2.93,32.73,6.44.81,4.22.69,25.17.07,29.79-1.43,10.63-24.38,2.96-32.18,7-4.03,2.09-11.74,21.3-11.22,25.8,1,8.55,20.36,20.06,19.85,25.45-.1,1.02-.88,1.92-1.42,2.76-1.13,1.76-19.63,20.55-21.04,21.38-.75.44-1.24.9-2.24,1.05-6.6.98-16.24-17.56-25.23-19.35-4.82-.96-22.4,6.08-25.44,9.79-6.06,7.41.14,28.54-4.17,31.95-1.67,1.32-33.54,1.64-35.55.44-4.66-2.77.18-24.21-3.78-31.28-3.11-5.54-22.52-12.34-28.95-10.14-6.04,2.07-16.66,18.82-21.64,18.57-1.45-.07-2.59-.92-3.75-1.67-1.59-1.03-19.46-18.8-20.2-20.08-4.64-8.06,10.32-16.19,14.86-22.39,1.11-1.51,2.57-3.75,2.94-5.56.98-4.79-6.01-22.84-9.79-25.81-7.83-6.17-31.45,3.58-33.27-8.03-.84-5.32-.73-22.04-.09-27.58,1.78-15.29,28.05,1.03,36.2-12.52,2.48-4.12,7.85-17.89,6.95-22.29-1.76-8.6-19.31-17.49-18.91-24.69.08-1.46.44-2.07,1.12-3.25.82-1.42,17.74-18.26,19.62-19.6,1.33-.95,2.58-2.05,4.33-2.15,5.06-.27,16.03,17.23,22.37,18.89s25.18-5.04,28.21-10.46c4.28-7.63-.39-21.36,1.88-28.94.66-2.2,3.78-3.3,5.87-3.67Z"/>
  <path class="st2" d="M124.08,55.87c96.11-5.91,100.62,143.14,4.99,144.31-91.38,1.12-97.9-138.6-4.99-144.31Z"/>
  <path class="st0" d="M123.02,62.24c80.9-6.3,96.85,114.12,18.26,129.95-90.04,18.14-108.67-122.9-18.26-129.95Z"/>
  <path class="st2" d="M164.4,104.53c.66.92,0,3.74-.92,4.75-6.68,4.51-39.23,42.08-43.04,42.83-1.61.32-3.42-1.54-4.63-2.48-2.68-2.07-23.76-23-24.19-24.68-.81-3.16,2.19-5.29,5.53-3.37,4.33,2.5,20.86,22.54,23.3,22.1l39.27-39.35c.65-1.29,4.31-.34,4.69.19Z"/>
</svg>