<?xml version="1.0" encoding="UTF-8"?>
<svg id="Layer_1" xmlns="http://www.w3.org/2000/svg" version="1.1" viewBox="0 0 256 256">
  <!-- Generator: Adobe Illustrator 30.1.0, SVG Export Plug-In . SVG Version: 2.1.1 Build 136)  -->
  <path d="M22.41,0h106.89v5.65h-5.34c-8.04,0-13.56.84-16.57,2.52s-5.14,4-6.41,6.95c-1.27,2.95-1.91,10.33-1.91,22.14v101.39c0,18.53,1.4,30.79,4.2,36.8,2.8,6.01,7.41,10.99,13.82,14.96s14.51,5.96,24.28,5.96c11.2,0,20.74-2.52,28.63-7.56,7.89-5.04,13.79-11.99,17.71-20.84s5.88-24.28,5.88-46.27V37.26c0-9.26-.97-15.88-2.9-19.85s-4.38-6.72-7.33-8.25c-4.58-2.34-11.05-3.51-19.39-3.51V0h71.62v5.65h-4.28c-5.8,0-10.64,1.17-14.51,3.51s-6.67,5.85-8.4,10.54c-1.32,3.26-1.99,9.11-1.99,17.56v78.64c0,24.33-1.6,41.89-4.81,52.68s-11.02,20.72-23.44,29.78c-12.42,9.06-29.37,13.59-50.85,13.59-17.92,0-31.76-2.39-41.53-7.18-13.34-6.52-22.75-14.86-28.25-25.04-5.5-10.18-8.25-23.87-8.25-41.08V37.26c0-11.91-.66-19.32-1.99-22.22s-3.61-5.22-6.87-6.95-9.26-2.54-18.02-2.44V0Z"/>
  <path d="M15.08,256v-29.78h225.84v29.78H15.08Z"/>
</svg>